<?xml version="1.0" encoding="utf-8"?>
<svg version="1.2" baseProfile="tiny" width="300" height="300" viewBox="0 0 300 300" xmlns="http://www.w3.org/2000/svg">
  <rect width="300" height="300" fill="#FFFFFF"/>
  <path d="M160.115 175.283C160.115 136.894 140.586 101.159 108.322 80.5117L99.4425 74.8306L88.1152 92.6405L96.9928 98.3217C123.194 115.089 139.054 144.108 139.054 175.283V198.831H160.115L160.115 175.283Z" fill="#FF4433"/>
  <path d="M139.115 175.283C139.115 136.894 158.645 101.159 190.908 80.5117L199.788 74.8306L211.115 92.6405L202.238 98.3217C176.037 115.089 160.177 144.108 160.177 175.283V198.831H139.115L139.115 175.283Z" fill="#FF4433"/>
  <path d="M160.115 219.831L139.115 219.831L139.115 58.8306L160.115 58.8306L160.115 219.831Z" fill="#FF4433"/>
  <path d="M139.071 168.999C139.071 154.051 126.987 141.934 112.082 141.934H78.1152V120.831H112.082C138.61 120.831 160.115 142.396 160.115 168.999V220.831H139.071V168.999Z" fill="#FF4433"/>
  <path d="M160.16 169.235C160.16 154.214 172.243 142.038 187.149 142.038H221.115V120.831H187.149C160.621 120.831 139.115 142.502 139.115 169.235V240.831H160.16V169.235Z" fill="#FF4433"/>
</svg>
