<svg width="65" height="92" viewBox="0 0 65 92" fill="none" xmlns="http://www.w3.org/2000/svg">
<rect width="64.89" height="91.35" rx="3.5621" fill="white"/>
<path d="M10.9265 55.0293L15.9577 48.8062C17.3412 47.0949 19.5174 46.2295 21.6983 46.5235L23.2053 46.7266C24.6534 46.9217 26.1244 46.6075 27.3663 45.8375L28.8848 44.8961C31.1492 43.4923 34.068 43.7488 36.0528 45.5262C38.2924 47.5318 41.6703 47.5714 43.9564 45.6189L48.8482 41.4408C49.7194 40.6968 50.3712 39.7293 50.7335 38.6424L54.4828 27.3936" stroke="#009753" stroke-width="1.26" stroke-linecap="round"/>
<path d="M6.9328 23.8481V59.9088H57.6003" stroke="black" stroke-opacity="0.2" stroke-width="0.315"/>
<line x1="7.1156" y1="8.31548" x2="57.7831" y2="8.31548" stroke="black" stroke-opacity="0.6" stroke-width="0.890526"/>
<line x1="7.1156" y1="12.7681" x2="57.7831" y2="12.7681" stroke="black" stroke-opacity="0.6" stroke-width="0.890526"/>
<line x1="7.1156" y1="17.2208" x2="37.3935" y2="17.2208" stroke="black" stroke-opacity="0.6" stroke-width="0.890526"/>
</svg>
